<svg width="100" height="100" viewBox="0 0 100 100" fill="none" xmlns="http://www.w3.org/2000/svg">
<path d="M50 50C55.8016 50 61.3656 47.6953 65.468 43.593C69.5703 39.4906 71.875 33.9266 71.875 28.125C71.875 22.3234 69.5703 16.7594 65.468 12.657C61.3656 8.55468 55.8016 6.25 50 6.25C44.1984 6.25 38.6344 8.55468 34.532 12.657C30.4297 16.7594 28.125 22.3234 28.125 28.125C28.125 33.9266 30.4297 39.4906 34.532 43.593C38.6344 47.6953 44.1984 50 50 50ZM23.4375 56.25C20.5367 56.25 17.7547 57.4023 15.7035 59.4535C13.6523 61.5047 12.5 64.2867 12.5 67.1875V68.75C12.5 76.2281 17.2594 82.5531 24.0156 86.8531C30.8094 91.1781 40.0063 93.75 50 93.75C59.9937 93.75 69.1875 91.1781 75.9844 86.8531C82.7406 82.5531 87.5 76.2281 87.5 68.75V67.1875C87.5 64.2867 86.3477 61.5047 84.2965 59.4535C82.2453 57.4023 79.4633 56.25 76.5625 56.25H23.4375Z" fill="#1A2459"/>
</svg>
