<svg width="100" height="100" viewBox="0 0 100 100" fill="none" xmlns="http://www.w3.org/2000/svg">
<path d="M50 8.33334C27.0833 8.33334 8.33331 27.0833 8.33331 50C8.33331 72.9167 27.0833 91.6667 50 91.6667C57.5 91.6667 64.5833 89.5833 70.8333 86.25C72.9166 85 73.3333 82.5 72.5 80.4167C71.25 78.3333 68.75 77.9167 66.6666 78.75C50.8333 87.9167 30.4166 82.5 21.25 66.6667C12.0833 50.8333 17.5 30.4167 33.3333 21.25C49.1666 12.0833 69.5833 17.5 78.75 33.3333C81.6666 38.3333 83.3333 44.1667 83.3333 50V53.3333C83.3333 57.5 80 60.8333 75.8333 60.8333C71.6666 60.8333 68.3333 57.5 68.3333 53.3333V35.4167C68.3333 32.9167 66.6666 31.25 64.1666 31.25C62.0833 31.25 60.4166 32.5 60 34.5833C51.6666 28.75 39.5833 30.8333 33.75 39.1667C27.9166 47.5 30 59.5833 38.3333 65.4167C46.25 70.8333 56.6666 69.5833 62.9166 62.5C68.3333 69.1667 77.9166 70.4167 84.5833 65.4167C88.3333 62.5 90.8333 57.9167 90.8333 52.9167V50C91.6666 27.0833 72.9166 8.33334 50 8.33334ZM50 60.4167C44.1666 60.4167 39.5833 55.8333 39.5833 50C39.5833 44.1667 44.1666 39.5833 50 39.5833C55.8333 39.5833 60.4166 44.1667 60.4166 50C60.4166 55.8333 55.8333 60.4167 50 60.4167Z" fill="#E45454"/>
</svg>
