<svg width="100" height="100" viewBox="0 0 100 100" fill="none" xmlns="http://www.w3.org/2000/svg">
<g clip-path="url(#clip0_907_3777)">
<path d="M50 5.55554C41.2097 5.55554 32.6168 8.16216 25.308 13.0458C17.9991 17.9294 12.3026 24.8707 8.93869 32.9918C5.5748 41.113 4.69465 50.0493 6.40955 58.6707C8.12445 67.292 12.3574 75.2113 18.573 81.427C24.7887 87.6426 32.7079 91.8755 41.3293 93.5904C49.9507 95.3053 58.887 94.4252 67.0082 91.0613C75.1293 87.6974 82.0706 82.0008 86.9542 74.692C91.8378 67.3831 94.4444 58.7903 94.4444 50C94.4444 38.2126 89.7619 26.908 81.427 18.573C73.092 10.2381 61.7874 5.55554 50 5.55554ZM67.2222 64.3889C67.0204 64.6942 66.7603 64.9567 66.4567 65.1612C66.1531 65.3656 65.8122 65.5081 65.4534 65.5804C65.0946 65.6527 64.725 65.6533 64.3659 65.5823C64.0069 65.5113 63.6654 65.3701 63.3611 65.1666L46.9722 54.0555V29.8611C46.9722 29.1244 47.2649 28.4178 47.7858 27.8969C48.3068 27.376 49.0133 27.0833 49.75 27.0833C50.4867 27.0833 51.1933 27.376 51.7142 27.8969C52.2351 28.4178 52.5278 29.1244 52.5278 29.8611V51.1111L66.4167 60.5278C66.7243 60.7274 66.9893 60.9859 67.1964 61.2885C67.4036 61.591 67.5488 61.9316 67.6237 62.2905C67.6986 62.6495 67.7017 63.0197 67.6328 63.3798C67.5639 63.74 67.4243 64.0829 67.2222 64.3889ZM66.25 22.8611C62.3416 20.5053 57.9698 19.0229 53.4345 18.5156C48.8993 18.0083 44.308 18.488 39.9756 19.922C35.6432 21.356 31.6723 23.7102 28.3354 26.8231C24.9984 29.936 22.3743 33.734 20.6432 37.9564C18.9121 42.1788 18.1148 46.7258 18.3062 51.2853C18.4976 55.8448 19.6731 60.3089 21.752 64.3714C23.8309 68.4339 26.764 71.9986 30.3501 74.8209C33.9363 77.6432 38.0905 79.6564 42.5278 80.7222L41.6667 85.0833C36.5776 83.8988 31.8063 81.624 27.6819 78.416C23.5576 75.208 20.1786 71.1432 17.7781 66.5022C15.3777 61.8611 14.013 56.7544 13.7783 51.5346C13.5435 46.3148 14.4443 41.1063 16.4185 36.2685C18.3927 31.4308 21.3932 27.079 25.2129 23.5138C29.0327 19.9485 33.5806 17.2546 38.5428 15.6181C43.5049 13.9816 48.7632 13.4414 53.9544 14.0349C59.1457 14.6284 64.1463 16.3413 68.6111 19.0555L66.25 22.8611Z" fill="#E45454"/>
</g>
<defs>
<clipPath id="clip0_907_3777">
<rect width="100" height="100" fill="white"/>
</clipPath>
</defs>
</svg>
