<svg width="100" height="100" viewBox="0 0 100 100" fill="none" xmlns="http://www.w3.org/2000/svg">
<path d="M90 13.3333C92.6522 13.3333 95.1957 14.3869 97.0711 16.2623C98.9464 18.1376 100 20.6812 100 23.3333V33.3333H0V23.3333C0 20.6812 1.05357 18.1376 2.92893 16.2623C4.8043 14.3869 7.34783 13.3333 10 13.3333H90Z" fill="#E45454"/>
<path fill-rule="evenodd" clip-rule="evenodd" d="M0 40V76.6667C0 79.3188 1.05357 81.8624 2.92893 83.7377C4.8043 85.6131 7.34783 86.6667 10 86.6667H90C92.6522 86.6667 95.1957 85.6131 97.0711 83.7377C98.9464 81.8624 100 79.3188 100 76.6667V40H0ZM13.3333 66.6667H53.3333V60H13.3333V66.6667ZM86.6667 66.6667H66.6667V60H86.6667V66.6667Z" fill="#E45454"/>
</svg>
