<svg width="100" height="100" viewBox="0 0 100 100" fill="none" xmlns="http://www.w3.org/2000/svg">
<path d="M7.29168 55.5208C6.11113 55.5208 5.12224 55.1222 4.32501 54.325C3.52779 53.5278 3.12779 52.5375 3.12501 51.3542C3.12224 50.1708 3.52224 49.1819 4.32501 48.3875C5.12779 47.593 6.11668 47.193 7.29168 47.1875H21.875C23.0556 47.1875 24.0458 47.5875 24.8458 48.3875C25.6458 49.1875 26.0445 50.1764 26.0417 51.3542C26.0389 52.5319 25.6389 53.5222 24.8417 54.325C24.0445 55.1278 23.0556 55.5264 21.875 55.5208H7.29168ZM29.1667 83.3333C25.6945 83.3333 22.7431 82.118 20.3125 79.6875C17.882 77.2569 16.6667 74.3055 16.6667 70.8333H11.4583C10.0695 70.8333 8.95835 70.3125 8.12501 69.2708C7.29168 68.2292 7.04863 67.0486 7.39585 65.7292L8.33335 61.7708H21.3542C24.2708 61.7708 26.7361 60.7639 28.75 58.75C30.7639 56.7361 31.7708 54.2708 31.7708 51.3542C31.7708 50.4514 31.6667 49.618 31.4583 48.8542C31.25 48.0903 30.9722 47.3264 30.625 46.5625H34.5833C37.5 46.5625 39.9653 45.5555 41.9792 43.5417C43.9931 41.5278 45 39.0625 45 36.1458C45 33.2292 43.9931 30.7639 41.9792 28.75C39.9653 26.7361 37.5 25.7292 34.5833 25.7292H18.75L19.375 23.2292C19.7917 21.2847 20.7472 19.7055 22.2417 18.4917C23.7361 17.2778 25.4889 16.6694 27.5 16.6667H69.7917C71.1806 16.6667 72.2917 17.1875 73.125 18.2292C73.9583 19.2708 74.2014 20.4514 73.8542 21.7708L71.1458 33.3333H79.1667C80.4861 33.3333 81.7361 33.6292 82.9167 34.2208C84.0972 34.8125 85.0695 35.6278 85.8333 36.6667L93.6458 46.9792C94.4097 47.9514 94.8958 49.0111 95.1042 50.1583C95.3125 51.3055 95.3125 52.468 95.1042 53.6458L92.2917 67.5C92.0833 68.4722 91.5972 69.2708 90.8333 69.8958C90.0695 70.5208 89.2014 70.8333 88.2292 70.8333H83.3333C83.3333 74.3055 82.1181 77.2569 79.6875 79.6875C77.257 82.118 74.3056 83.3333 70.8333 83.3333C67.3611 83.3333 64.4097 82.118 61.9792 79.6875C59.5486 77.2569 58.3333 74.3055 58.3333 70.8333H41.6667C41.6667 74.3055 40.4514 77.2569 38.0208 79.6875C35.5903 82.118 32.6389 83.3333 29.1667 83.3333ZM15.625 40.3125C14.4445 40.3125 13.4556 39.9125 12.6583 39.1125C11.8611 38.3125 11.4611 37.3236 11.4583 36.1458C11.4556 34.968 11.8556 33.9792 12.6583 33.1792C13.4611 32.3792 14.45 31.9792 15.625 31.9792H34.375C35.5556 31.9792 36.5458 32.3792 37.3458 33.1792C38.1458 33.9792 38.5445 34.968 38.5417 36.1458C38.5389 37.3236 38.1389 38.3139 37.3417 39.1167C36.5445 39.9194 35.5556 40.318 34.375 40.3125H15.625ZM29.1667 75C30.3472 75 31.3375 74.6 32.1375 73.8C32.9375 73 33.3361 72.0111 33.3333 70.8333C33.3306 69.6555 32.9306 68.6667 32.1333 67.8667C31.3361 67.0667 30.3472 66.6667 29.1667 66.6667C27.9861 66.6667 26.9972 67.0667 26.2 67.8667C25.4028 68.6667 25.0028 69.6555 25 70.8333C24.9972 72.0111 25.3972 73.0014 26.2 73.8042C27.0028 74.6069 27.9917 75.0055 29.1667 75ZM70.8333 75C72.0139 75 73.0042 74.6 73.8042 73.8C74.6042 73 75.0028 72.0111 75 70.8333C74.9972 69.6555 74.5972 68.6667 73.8 67.8667C73.0028 67.0667 72.0139 66.6667 70.8333 66.6667C69.6528 66.6667 68.6639 67.0667 67.8667 67.8667C67.0695 68.6667 66.6695 69.6555 66.6667 70.8333C66.6639 72.0111 67.0639 73.0014 67.8667 73.8042C68.6695 74.6069 69.6583 75.0055 70.8333 75ZM66.3542 54.1667H86.4583L86.875 51.9792L79.1667 41.6667H69.2708L66.3542 54.1667Z" fill="#E45454"/>
</svg>
