<svg width="100" height="100" viewBox="0 0 100 100" fill="none" xmlns="http://www.w3.org/2000/svg">
<path d="M50 87.5L43.9583 82.0833C36.9444 75.7639 31.1458 70.3125 26.5625 65.7292C21.9791 61.1458 18.3333 57.0305 15.625 53.3833C12.9166 49.7361 11.025 46.3861 9.94998 43.3333C8.87498 40.2805 8.33609 37.1555 8.33331 33.9583C8.33331 27.4305 10.5208 21.9792 14.8958 17.6042C19.2708 13.2292 24.7222 11.0417 31.25 11.0417C34.8611 11.0417 38.2986 11.8055 41.5625 13.3333C44.8264 14.8611 47.6389 17.0139 50 19.7917C52.3611 17.0139 55.1736 14.8611 58.4375 13.3333C61.7014 11.8055 65.1389 11.0417 68.75 11.0417C75.2778 11.0417 80.7291 13.2292 85.1041 17.6042C89.4791 21.9792 91.6667 27.4305 91.6667 33.9583C91.6667 37.1528 91.1292 40.2778 90.0542 43.3333C88.9792 46.3889 87.0861 49.7389 84.375 53.3833C81.6639 57.0278 78.018 61.143 73.4375 65.7292C68.8569 70.3153 63.0583 75.7667 56.0416 82.0833L50 87.5Z" fill="#E45454"/>
</svg>
