<svg width="100" height="100" viewBox="0 0 100 100" fill="none" xmlns="http://www.w3.org/2000/svg">
<path d="M76.125 25C80.3333 34.0417 79.375 44.7083 74.75 53.375C70.8333 60.4167 65.2083 66.375 60.4166 72.9167C58.3333 75.8333 56.25 78.9583 54.7083 82.3333C54.1666 83.4583 53.7916 84.625 53.375 85.7917C52.9583 86.9583 52.5833 88.125 52.2083 89.2917C51.8333 90.375 51.375 91.6667 50 91.6667C48.375 91.6667 47.9166 89.8333 47.5833 88.5833C46.5833 85.5417 45.5833 82.625 44.0416 79.8333C42.2916 76.5417 40.0833 73.5 37.8333 70.5417L76.125 25ZM38 35.0833L24.25 51.4167C26.7916 56.7917 30.5833 61.375 34.2083 65.9583C35.0833 67 35.9583 68.0833 36.7916 69.2083L54.1666 48.625L54 48.6667C47.9166 50.75 41.1666 47.6667 38.75 41.6667C38.4166 40.9583 38.1666 40.125 38 39.2917C37.7669 37.9126 37.7669 36.5041 38 35.125V35.0833ZM27.4166 19.25L27.375 19.2917C20.625 27.8333 19.4583 39.7083 23.5 49.75L40.125 30L39.9166 29.7917L27.4166 19.25ZM59.25 9.83334L45.8333 25.7083L46 25.6667C51.5833 23.75 57.8333 26.1667 60.6667 31.25C61.2917 32.4167 61.7916 33.6667 61.9583 34.9167C62.2083 36.5 62.2916 37.625 62 39.1667V39.2083L75.3333 23.375C71.8442 17.0422 66.1273 12.2311 59.2916 9.87501L59.25 9.83334ZM41.2083 28.7083L57.5 9.33334L57.3333 9.29168C54.9167 8.66668 52.4583 8.33334 50 8.33334C41.7916 8.33334 34.0416 11.875 28.5416 17.9583L28.4583 18L41.2083 28.7083Z" fill="#E45454"/>
</svg>
