<svg width="100" height="100" viewBox="0 0 100 100" fill="none" xmlns="http://www.w3.org/2000/svg">
<path d="M50 64.5833C48.064 64.5822 46.1472 64.1988 44.3597 63.4551C42.5721 62.7115 40.949 61.6223 39.5833 60.25C36.8156 57.4892 35.257 53.7426 35.25 49.8333C35.2512 47.8973 35.6346 45.9805 36.3782 44.193C37.1218 42.4055 38.211 40.7823 39.5833 39.4167C42.3441 36.6489 46.0907 35.0903 50 35.0833C51.936 35.0845 53.8528 35.4679 55.6403 36.2115C57.4279 36.9552 59.051 38.0444 60.4167 39.4167C63.1844 42.1775 64.743 45.9241 64.75 49.8333C64.7488 51.7694 64.3654 53.6861 63.6218 55.4737C62.8782 57.2612 61.789 58.8844 60.4167 60.25C57.6559 63.0178 53.9093 64.5764 50 64.5833Z" fill="#E45454"/>
<path fill-rule="evenodd" clip-rule="evenodd" d="M30.875 4.45833C34.7625 4.24999 41.125 4.14999 50 4.14999C58.875 4.14999 65.25 4.25277 69.125 4.45833C72.5625 4.58333 75.9583 5.16666 79.25 6.19583C82.5958 7.38749 85.625 9.31249 88.1666 11.8208C90.675 14.3429 92.5957 17.3875 93.7916 20.7375C94.8291 24.0583 95.45 27.4875 95.6333 30.9875C95.7722 34.8069 95.8403 41.1542 95.8375 50.0292C95.8375 58.9042 95.7347 65.2792 95.5291 69.1542C95.4019 72.5913 94.8176 75.9962 93.7916 79.2792C92.5957 82.6291 90.675 85.6738 88.1666 88.1958C85.6446 90.7042 82.5999 92.6249 79.25 93.8208C75.967 94.8468 72.5621 95.4311 69.125 95.5583C65.2375 95.7667 58.875 95.8667 50 95.8667C41.125 95.8667 34.75 95.7639 30.875 95.5583C27.4197 95.4401 24.0039 94.7851 20.75 93.6167C17.3878 92.5492 14.3302 90.6918 11.8333 88.2C9.3026 85.6958 7.37849 82.6458 6.20831 79.2833C5.18235 76.0004 4.59805 72.5955 4.47081 69.1583C4.26248 65.2708 4.16248 58.9083 4.16248 50.0333C4.16248 41.1583 4.26525 34.7833 4.47081 30.9083C4.59581 27.4708 5.17914 24.075 6.20831 20.7833C7.39998 17.4375 9.32498 14.4083 11.8333 11.8667C14.3416 9.32499 17.375 7.44999 20.75 6.24166C24.0329 5.21571 27.4378 4.63141 30.875 4.50416V4.45833ZM71.375 20.6667C72.4761 19.9307 73.7995 19.6021 75.1169 19.7375C76.4344 19.8729 77.6633 20.4638 78.5916 21.4083C79.6625 22.475 80.2708 23.925 80.2916 25.4417C80.1664 26.9501 79.5316 28.3711 78.4916 29.4708C77.9963 30.0185 77.3892 30.4537 76.7114 30.7469C76.0336 31.0402 75.3009 31.1847 74.5625 31.1708C73.8096 31.1786 73.0632 31.0317 72.3694 30.7393C71.6756 30.4469 71.0493 30.0152 70.5291 29.4708C69.7248 28.6738 69.1757 27.6556 68.9516 26.5456C68.7276 25.4357 68.8387 24.2841 69.2708 23.2375C69.7041 22.1898 70.4395 21.2948 71.3833 20.6667H71.375ZM38.5416 30.1667C42.0111 28.1191 45.9715 27.052 50 27.0792C54.0291 27.0542 58 28.1208 61.4583 30.1667C64.9356 32.1762 67.8238 35.0644 69.8333 38.5417C71.857 42.0213 72.923 45.9747 72.923 50C72.923 54.0253 71.857 57.9787 69.8333 61.4583C67.8238 64.9356 64.9356 67.8238 61.4583 69.8333C57.9787 71.857 54.0253 72.9231 50 72.9231C45.9747 72.9231 42.0212 71.857 38.5416 69.8333C35.0643 67.8238 32.1762 64.9356 30.1666 61.4583C28.143 57.9787 27.0769 54.0253 27.0769 50C27.0769 45.9747 28.143 42.0213 30.1666 38.5417C32.1809 35.0679 35.0679 32.1809 38.5416 30.1667Z" fill="#E45454"/>
</svg>
