<svg width="100" height="100" viewBox="0 0 100 100" fill="none" xmlns="http://www.w3.org/2000/svg">
<path fill-rule="evenodd" clip-rule="evenodd" d="M55.3437 17.1875C54.2045 14.369 52.0771 12.0622 49.3598 10.699C46.6425 9.33584 43.5215 9.00964 40.581 9.78149C37.6406 10.5533 35.0822 12.3703 33.3847 14.8924C31.6872 17.4144 30.9671 20.4686 31.359 23.4833C31.7509 26.4981 33.228 29.2666 35.5139 31.2708C37.7998 33.275 40.7377 34.3775 43.7778 34.3719C46.8179 34.3663 49.7517 33.2529 52.0301 31.2403C54.3086 29.2277 55.7755 26.4536 56.1562 23.4375H75C77.4864 23.4375 79.871 24.4252 81.6291 26.1834C83.3873 27.9415 84.375 30.3261 84.375 32.8125C84.375 35.2989 83.3873 37.6835 81.6291 39.4416C79.871 41.1998 77.4864 42.1875 75 42.1875H31.25C27.106 42.1875 23.1317 43.8337 20.2015 46.764C17.2712 49.6942 15.625 53.6685 15.625 57.8125C15.625 61.9565 17.2712 65.9308 20.2015 68.8611C23.1317 71.7913 27.106 73.4375 31.25 73.4375H65.7187C66.0995 76.4536 67.5664 79.2277 69.8449 81.2403C72.1233 83.2529 75.0571 84.3663 78.0972 84.3719C81.1373 84.3775 84.0752 83.275 86.3611 81.2708C88.647 79.2666 90.1241 76.4981 90.516 73.4833C90.9079 70.4686 90.1878 67.4144 88.4903 64.8924C86.7928 62.3703 84.2344 60.5533 81.294 59.7815C78.3535 59.0096 75.2325 59.3358 72.5152 60.699C69.7979 62.0622 67.6705 64.369 66.5312 67.1875H31.25C28.7636 67.1875 26.379 66.1998 24.6209 64.4416C22.8627 62.6835 21.875 60.2989 21.875 57.8125C21.875 55.3261 22.8627 52.9415 24.6209 51.1834C26.379 49.4252 28.7636 48.4375 31.25 48.4375H75C79.144 48.4375 83.1183 46.7913 86.0485 43.8611C88.9788 40.9308 90.625 36.9565 90.625 32.8125C90.625 28.6685 88.9788 24.6942 86.0485 21.764C83.1183 18.8337 79.144 17.1875 75 17.1875H55.3437Z" fill="#1A2459"/>
</svg>
