<svg width="100" height="100" viewBox="0 0 100 100" fill="none" xmlns="http://www.w3.org/2000/svg">
<g clip-path="url(#clip0_907_3790)">
<path d="M98.6105 83.1535L84.5116 97.1393C82.4304 99.2737 79.6719 99.9967 76.9853 100C65.1044 99.6441 53.8742 93.808 44.6535 87.8154C29.5183 76.8046 15.6312 63.1517 6.91535 46.6527C3.57252 39.7341 -0.349818 30.9065 0.0249317 23.1841C0.0583483 20.2791 0.841182 17.428 2.8871 15.5555L16.9859 1.46374C19.9136 -1.02651 22.7449 -0.165512 24.6184 2.73515L35.9609 24.2437C37.1548 26.7917 36.4699 29.5219 34.6888 31.3427L29.4944 36.5343C29.1738 36.9736 28.9696 37.4736 28.9644 38.0177C30.9563 45.7279 36.9905 52.8343 42.3212 57.7249C47.6518 62.6156 53.3816 69.2414 60.8193 70.81C61.7386 71.0664 62.8647 71.1565 63.5224 70.5451L69.5649 64.3998C71.6479 62.8211 74.6554 62.0494 76.8792 63.3403H76.9852L97.4443 75.4189C100.448 77.3016 100.761 80.9399 98.6105 83.1535Z" fill="#E45454"/>
</g>
<defs>
<clipPath id="clip0_907_3790">
<rect width="100" height="100" fill="white"/>
</clipPath>
</defs>
</svg>
