<svg width="100" height="100" viewBox="0 0 100 100" fill="none" xmlns="http://www.w3.org/2000/svg">
<path d="M16.6667 37.5H83.3334L79.8542 75.7542C79.666 77.8246 78.7107 79.75 77.1759 81.1523C75.641 82.5546 73.6374 83.3325 71.5584 83.3333H28.4417C26.3627 83.3325 24.3591 82.5546 22.8242 81.1523C21.2893 79.75 20.334 77.8246 20.1459 75.7542L16.6667 37.5Z" stroke="#1A2459" stroke-width="10" stroke-linejoin="round"/>
<path d="M33.3334 45.8333V33.3333C33.3334 28.913 35.0893 24.6738 38.2149 21.5482C41.3405 18.4226 45.5798 16.6667 50 16.6667C54.4203 16.6667 58.6595 18.4226 61.7852 21.5482C64.9108 24.6738 66.6667 28.913 66.6667 33.3333V45.8333" stroke="#1A2459" stroke-width="10" stroke-linecap="round"/>
<rect x="19" y="41" width="61" height="39" fill="#1A2459"/>
</svg>
